<?xml version="1.0" encoding="UTF-8"?>
<svg xmlns="http://www.w3.org/2000/svg" xmlns:xlink="http://www.w3.org/1999/xlink" width="854" height="480" viewBox="0 0 854 480">
<defs>
<g>
<g id="glyph-0-0">
<path d="M 10.21875 -9.875 C 7.882812 -9.3125 4.949219 -9.019531 1.40625 -9.019531 L 1.675781 -8.226562 C 3.191406 -8.226562 4.597656 -8.285156 5.890625 -8.382812 L 5.890625 -6.390625 L 1.648438 -6.390625 L 1.648438 -5.535156 L 5.890625 -5.535156 L 5.890625 -3.53125 L 0.636719 -3.53125 L 0.636719 -2.6875 L 5.890625 -2.6875 L 5.890625 -0.207031 C 5.890625 0.132812 5.695312 0.316406 5.328125 0.316406 C 4.765625 0.316406 4.167969 0.292969 3.542969 0.269531 L 3.738281 1.125 L 5.632812 1.125 C 6.390625 1.125 6.785156 0.746094 6.785156 0.0117188 L 6.785156 -2.6875 L 11.597656 -2.6875 L 11.597656 -3.53125 L 6.785156 -3.53125 L 6.785156 -5.535156 L 10.683594 -5.535156 L 10.683594 -6.390625 L 6.785156 -6.390625 L 6.785156 -8.457031 C 8.25 -8.605469 9.535156 -8.835938 10.644531 -9.128906 Z "/>
</g>
<g id="glyph-0-1">
<path d="M 4.9375 -8.019531 L 4.9375 -7.175781 L 11.390625 -7.175781 L 11.390625 -8.019531 L 8.628906 -8.019531 C 8.457031 -8.75 8.261719 -9.410156 8.054688 -9.984375 L 7.164062 -9.839844 C 7.382812 -9.277344 7.589844 -8.679688 7.761719 -8.019531 Z M 4.621094 -0.148438 L 4.621094 0.707031 L 11.671875 0.707031 L 11.671875 -0.148438 L 9.277344 -0.148438 C 9.839844 -1.90625 10.316406 -3.910156 10.707031 -6.160156 L 9.863281 -6.378906 C 9.4375 -3.886719 8.945312 -1.808594 8.382812 -0.148438 Z M 6.34375 -6.246094 L 5.535156 -5.988281 C 5.941406 -4.300781 6.28125 -2.554688 6.550781 -0.746094 L 7.371094 -0.953125 C 7.078125 -2.945312 6.734375 -4.707031 6.34375 -6.246094 Z M 4.644531 -5.15625 C 4.179688 -4.902344 3.714844 -4.65625 3.238281 -4.4375 L 3.238281 -6.894531 L 4.597656 -6.894531 L 4.597656 -7.738281 L 3.238281 -7.738281 L 3.238281 -9.949219 L 2.347656 -9.949219 L 2.347656 -7.738281 L 0.671875 -7.738281 L 0.671875 -6.894531 L 2.347656 -6.894531 L 2.347656 -4.070312 C 1.746094 -3.851562 1.125 -3.65625 0.488281 -3.496094 L 0.707031 -2.617188 C 1.257812 -2.785156 1.808594 -2.980469 2.347656 -3.191406 L 2.347656 -0.195312 C 2.347656 0.148438 2.175781 0.316406 1.84375 0.316406 C 1.527344 0.316406 1.199219 0.292969 0.855469 0.269531 L 1.050781 1.125 L 2.152344 1.125 C 2.871094 1.125 3.238281 0.757812 3.238281 0.0234375 L 3.238281 -3.570312 C 3.714844 -3.789062 4.179688 -4.019531 4.644531 -4.265625 Z "/>
</g>
<g id="glyph-0-2">
<path d="M 4.265625 -8.972656 L 4.265625 -8.1875 L 6.050781 -8.1875 L 6.050781 -7.273438 L 6.867188 -7.273438 L 6.867188 -8.1875 L 8.835938 -8.1875 L 8.835938 -7.273438 L 9.667969 -7.273438 L 9.667969 -8.1875 L 11.5625 -8.1875 L 11.5625 -8.972656 L 9.667969 -8.972656 L 9.667969 -9.949219 L 8.835938 -9.949219 L 8.835938 -8.972656 L 6.867188 -8.972656 L 6.867188 -9.949219 L 6.050781 -9.949219 L 6.050781 -8.972656 Z M 7.699219 -1.296875 C 8.410156 -0.269531 9.546875 0.574219 11.136719 1.257812 L 11.722656 0.5625 C 10.277344 0.0507812 9.203125 -0.625 8.496094 -1.453125 L 11.585938 -1.453125 L 11.585938 -2.261719 L 8.066406 -2.261719 C 8.140625 -2.542969 8.214844 -2.847656 8.261719 -3.191406 L 10.769531 -3.191406 L 10.769531 -6.894531 L 4.914062 -6.894531 L 4.914062 -3.191406 L 7.480469 -3.191406 C 7.417969 -2.871094 7.347656 -2.554688 7.246094 -2.261719 L 4.035156 -2.261719 L 4.035156 -1.453125 L 6.882812 -1.453125 C 6.785156 -1.285156 6.660156 -1.125 6.539062 -0.964844 C 6 -0.34375 5.132812 0.132812 3.910156 0.464844 L 4.230469 1.199219 C 5.632812 0.792969 6.613281 0.246094 7.175781 -0.464844 C 7.371094 -0.707031 7.554688 -0.988281 7.699219 -1.296875 Z M 3.082031 -5.035156 C 3.398438 -4.535156 3.789062 -3.886719 4.242188 -3.082031 L 4.707031 -3.777344 C 4.144531 -4.597656 3.605469 -5.328125 3.082031 -5.964844 L 3.082031 -6.769531 L 4.363281 -6.769531 L 4.363281 -7.566406 L 3.082031 -7.566406 L 3.082031 -9.9375 L 2.25 -9.9375 L 2.25 -7.566406 L 0.832031 -7.566406 L 0.832031 -6.769531 L 2.25 -6.769531 L 2.25 -6.699219 C 1.882812 -5.207031 1.269531 -3.886719 0.429688 -2.714844 L 0.808594 -1.761719 C 1.394531 -2.703125 1.871094 -3.753906 2.25 -4.902344 L 2.25 1.1875 L 3.082031 1.1875 Z M 9.972656 -3.875 L 5.707031 -3.875 L 5.707031 -4.707031 L 9.972656 -4.707031 Z M 5.707031 -5.367188 L 5.707031 -6.183594 L 9.972656 -6.183594 L 9.972656 -5.367188 Z "/>
</g>
<g id="glyph-0-3">
<path d="M 1.136719 -9.4375 L 1.136719 -8.652344 L 2.382812 -8.652344 L 2.382812 -6.820312 L 0.820312 -6.820312 L 0.820312 -6.011719 L 2.335938 -6.011719 C 2.210938 -5.011719 1.808594 -4.265625 1.125 -3.753906 L 1.785156 -3.179688 C 2.589844 -3.8125 3.054688 -4.753906 3.191406 -6.011719 L 4.792969 -6.011719 L 4.792969 -3.324219 L 5.648438 -3.324219 L 5.648438 -6.011719 L 7.148438 -6.011719 L 7.148438 -6.820312 L 5.648438 -6.820312 L 5.648438 -8.652344 L 6.882812 -8.652344 L 6.882812 -9.4375 Z M 3.226562 -8.652344 L 4.792969 -8.652344 L 4.792969 -6.820312 L 3.226562 -6.820312 Z M 7.871094 -9.15625 L 7.871094 -4.949219 L 8.714844 -4.949219 L 8.714844 -9.15625 Z M 1.429688 -2.125 L 1.429688 -1.320312 L 5.71875 -1.320312 L 5.71875 0.109375 L 0.746094 0.109375 L 0.746094 0.917969 L 11.476562 0.917969 L 11.476562 0.109375 L 6.601562 0.109375 L 6.601562 -1.320312 L 10.804688 -1.320312 L 10.804688 -2.125 L 6.601562 -2.125 L 6.601562 -3.191406 L 5.71875 -3.191406 L 5.71875 -2.125 Z M 9.949219 -3.214844 C 10.597656 -3.214844 10.925781 -3.59375 10.925781 -4.339844 L 10.925781 -9.828125 L 10.082031 -9.828125 L 10.082031 -4.546875 C 10.082031 -4.179688 9.9375 -3.984375 9.65625 -3.984375 C 9.167969 -3.984375 8.664062 -4.007812 8.128906 -4.046875 L 8.3125 -3.214844 Z "/>
</g>
</g>
</defs>
<g fill="rgb(100%, 100%, 100%)" fill-opacity="1">
<use xlink:href="#glyph-0-0" x="30" y="32.956055"/>
<use xlink:href="#glyph-0-1" x="42" y="32.956055"/>
<use xlink:href="#glyph-0-0" x="54" y="32.956055"/>
<use xlink:href="#glyph-0-2" x="66" y="32.956055"/>
<use xlink:href="#glyph-0-3" x="78" y="32.956055"/>
</g>
</svg>
